Patient4_TMGait_0pt5_01_left_39_GRF.mot
version=1
nRows=58
nColumns=19
inDegrees=no
endheader
time	F1x	F1y	F1z	M1x	M1y	M1z	F2x	F2y	F2z	M2x	M2y	M2z	EC1x	EC1y	EC1z	EC2x	EC2y	EC2z
51.96	-5.2462	8.2999	-4.9638	-0.20638	-2.0226	-0.25308	-33.3341	722.9283	-55.9795	263.1363	59.0098	621.2958	-0.0592	0.0182	-0.0073	-0.0462	0.0165	0.9585
51.9732	-3.7734	5.7876	-3.2723	-0.20811	-1.5555	0.092889	-30.3959	725.6086	-54.6013	264.0514	56.5949	621.1008	-0.0592	0.0182	-0.0073	-0.0462	0.0165	0.9585
51.9864	-2.5303	3.6499	-1.8386	-0.21298	-1.1509	0.3699	-27.5745	730.3203	-53.2345	265.6986	54.2185	621.9615	-0.0592	0.0182	-0.0073	-0.0462	0.0165	0.9585
51.9996	-1.5873	2.0214	-0.74802	-0.22006	-0.8363	0.56854	-25.052	737.2672	-52.026	268.1536	52.0753	624.1281	-0.0592	0.0182	-0.0073	-0.0462	0.0165	0.9585
52.0129	-0.94146	0.90318	0.005875	-0.22702	-0.61434	0.69597	-22.8984	746.1809	-51.1071	271.3148	50.2984	627.4799	-0.0592	0.0182	-0.0073	-0.0462	0.0165	0.9585
52.0261	-0.55163	0.22853	0.47039	-0.23446	-0.47089	0.77229	-21.1095	756.3421	-50.5604	274.9107	48.9455	631.5322	-0.0592	0.0182	-0.0073	-0.0462	0.0165	0.9585
52.0393	-0.3715	-0.11026	0.71753	-0.23979	-0.39815	0.80503	-19.5941	766.6823	-50.3987	278.5465	47.983	635.4827	-0.0592	0.0182	-0.0073	-0.0462	0.0165	0.9585
52.0525	-0.34645	-0.2374	0.81012	-0.23677	-0.37926	0.78233	-18.2191	776.0035	-50.5781	281.7862	47.3181	638.4062	-0.0592	0.0182	-0.0073	-0.0462	0.0165	0.9585
52.0657	-0.4313	-0.27053	0.80801	-0.21476	-0.40332	0.69957	-16.8197	783.1808	-51.0116	284.2263	46.8182	639.4233	-0.0592	0.0182	-0.0073	-0.0462	0.0165	0.9585
52.0789	-0.57684	-0.32336	0.75383	-0.15656	-0.45561	0.53	-15.232	787.3419	-51.6046	285.5619	46.3482	637.8478	-0.0592	0.0182	-0.0073	-0.0462	0.0165	0.9585
52.0921	-0.75349	-0.50333	0.68098	-0.039352	-0.52966	0.23092	-13.3141	788.0038	-52.2517	285.6338	45.7717	633.2995	-0.0592	0.0182	-0.0073	-0.0462	0.0165	0.9585
52.1054	-0.93425	-0.90314	0.60674	0.16074	-0.61217	-0.25603	-10.953	785.1423	-52.8509	284.4538	44.9691	625.7671	-0.0592	0.0182	-0.0073	-0.0462	0.0165	0.9585
52.1186	-1.0802	-1.5945	0.53467	0.46548	-0.67941	-0.98749	-8.0981	779.1942	-53.3098	282.2053	43.8538	615.6137	-0.0592	0.0182	-0.0073	-0.0462	0.0165	0.9585
52.1318	-1.137	-2.6053	0.46281	0.88512	-0.70125	-1.9908	-4.7387	770.9388	-53.5734	279.1952	42.386	603.4819	-0.0592	0.0182	-0.0073	-0.0462	0.0165	0.9585
52.145	-1.0354	-3.895	0.38412	1.4064	-0.63968	-3.2354	-0.9197	761.3542	-53.6646	275.7967	40.6051	590.1815	-0.0592	0.0182	-0.0073	-0.0462	0.0165	0.9585
52.1582	-0.68597	-5.3236	0.29191	1.9768	-0.45151	-4.6002	3.2788	751.5045	-53.6592	272.4106	38.6039	576.5849	-0.0592	0.0182	-0.0073	-0.0462	0.0165	0.9585
52.1714	0.02919	-6.6012	0.17169	2.4837	-0.078671	-5.825	7.7583	742.4319	-53.6575	269.4217	36.5023	563.5512	-0.0592	0.0182	-0.0073	-0.0462	0.0165	0.9585
52.1846	1.2275	-7.2475	0.015667	2.74	0.52839	-6.4684	12.3997	735.0096	-53.7439	267.1433	34.412	551.8172	-0.0592	0.0182	-0.0073	-0.0462	0.0165	0.9585
52.1979	3.0014	-6.5541	-0.18635	2.4705	1.4084	-5.8727	17.0637	729.7679	-53.9774	265.7493	32.4346	541.8692	-0.0592	0.0182	-0.0073	-0.0462	0.0165	0.9585
52.2111	5.3755	-3.5456	-0.42617	1.3005	2.5568	-3.1402	21.5729	726.7721	-54.3766	265.2269	30.6493	533.8679	-0.0592	0.0182	-0.0073	-0.0462	0.0165	0.9585
52.2243	8.2549	2.9997	-0.68367	-1.238	3.91	2.8483	25.7254	725.5506	-54.9237	265.3538	29.1118	527.5914	-0.0592	0.0182	-0.0073	-0.0462	0.0165	0.9585
52.2375	11.3176	14.4215	-0.90495	-5.6589	5.288	13.3325	29.2945	725.137	-55.5526	265.7158	27.8541	522.4846	-0.0592	0.0182	-0.0073	-0.0462	0.0165	0.9585
52.2507	13.9811	31.9908	-1.02	-12.4493	6.3975	29.4937	32.051	724.1663	-56.1564	265.7504	26.8877	517.7178	-0.0592	0.0182	-0.0073	-0.0462	0.0165	0.9585
52.2639	15.4122	56.5886	-0.95339	-21.9431	6.8433	52.1771	33.7818	721.0256	-56.5912	264.8092	26.1972	512.2763	-0.0592	0.0182	-0.0073	-0.0462	0.0165	0.9585
52.2771	14.6719	88.2623	-0.59697	-34.1563	6.1589	81.4812	34.3374	714.0623	-56.6943	262.2442	25.7397	505.088	-0.0592	0.0182	-0.0073	-0.0462	0.0165	0.9585
52.2904	11.3416	126.0191	0.17153	-48.7007	4.0655	116.5283	33.7009	701.8723	-56.2947	257.5298	25.4268	495.1741	-0.0592	0.0182	-0.0073	-0.0462	0.0165	0.9585
52.3036	6.0321	167.556	1.5631	-64.6702	0.59738	155.1581	32.0187	683.6546	-55.2281	250.398	25.1122	481.8824	-0.0592	0.0182	-0.0073	-0.0462	0.0165	0.9585
52.3168	-0.14732	209.1273	3.894	-80.6077	-4.1019	193.758	29.6093	659.4101	-53.3968	240.9092	24.6263	465.0206	-0.0592	0.0182	-0.0073	-0.0462	0.0165	0.9585
52.33	-6.2928	247.4481	7.1753	-95.2497	-9.6625	229.1273	26.8945	630.0954	-50.7945	229.4939	23.8096	445.0068	-0.0592	0.0182	-0.0073	-0.0462	0.0165	0.9585
52.3432	-11.8411	281.1586	10.935	-108.0991	-15.4014	259.9145	24.3338	597.4351	-47.5489	216.8619	22.5653	422.7795	-0.0592	0.0182	-0.0073	-0.0462	0.0165	0.9585
52.3564	-16.4808	310.2931	14.805	-119.1968	-20.8391	286.1315	22.3012	563.2273	-43.9052	203.7338	20.9038	399.3765	-0.0592	0.0182	-0.0073	-0.0462	0.0165	0.9585
52.3696	-20.0575	335.5417	18.3238	-128.839	-25.4735	308.3888	20.973	528.7312	-40.0895	190.6123	18.8904	375.5411	-0.0592	0.0182	-0.0073	-0.0462	0.0165	0.9585
52.3829	-22.4971	357.8734	21.2505	-137.4137	-29.0528	327.5558	20.3573	494.4969	-36.2425	177.7219	16.6011	351.5973	-0.0592	0.0182	-0.0073	-0.0462	0.0165	0.9585
52.3961	-23.7883	378.4114	23.3795	-145.3542	-31.3921	344.6218	20.332	460.526	-32.4064	165.0676	14.0982	327.5663	-0.0592	0.0182	-0.0073	-0.0462	0.0165	0.9585
52.4093	-24.0261	398.2593	24.7586	-153.0662	-32.5839	360.6006	20.7006	426.4357	-28.5894	152.5028	11.454	303.2434	-0.0592	0.0182	-0.0073	-0.0462	0.0165	0.9585
52.4225	-23.3536	418.3814	25.5667	-160.8936	-32.853	376.3825	21.198	391.6947	-24.7742	139.8209	8.75	278.3412	-0.0592	0.0182	-0.0073	-0.0462	0.0165	0.9585
52.4357	-21.9703	439.6575	26.1784	-169.1413	-32.6177	392.7891	21.5225	355.8479	-20.9748	126.8396	6.1115	252.6252	-0.0592	0.0182	-0.0073	-0.0462	0.0165	0.9585
52.4489	-20.1461	462.9222	26.9602	-178.1002	-32.3054	410.5838	21.378	318.6895	-17.2487	113.4641	3.6882	226.0236	-0.0592	0.0182	-0.0073	-0.0462	0.0165	0.9585
52.4621	-18.1693	488.9218	28.272	-188.0321	-32.344	430.4496	20.5192	280.3821	-13.7007	99.7323	1.6434	198.7069	-0.0592	0.0182	-0.0073	-0.0462	0.0165	0.9585
52.4754	-16.2753	518.2907	30.2873	-199.1646	-32.9768	452.95	18.8181	241.5244	-10.444	85.8414	0.10245	171.1144	-0.0592	0.0182	-0.0073	-0.0462	0.0165	0.9585
52.4886	-14.6235	551.3768	33.0425	-211.6228	-34.3042	478.3763	16.3012	203.114	-7.5866	72.1328	-0.87051	143.9423	-0.0592	0.0182	-0.0073	-0.0462	0.0165	0.9585
52.5018	-13.3212	588.0227	36.399	-225.3437	-36.2501	506.5797	13.1854	166.3573	-5.1936	59.0278	-1.3135	118.0032	-0.0592	0.0182	-0.0073	-0.0462	0.0165	0.9585
52.515	-12.4293	627.4333	40.1986	-240.0175	-38.7026	536.8883	9.7894	132.413	-3.2928	46.9332	-1.3262	94.0658	-0.0592	0.0182	-0.0073	-0.0462	0.0165	0.9585
52.5282	-11.9701	668.2168	44.2703	-255.0992	-41.5176	568.1478	6.4477	102.1476	-1.8637	36.1561	-1.0442	72.7026	-0.0592	0.0182	-0.0073	-0.0462	0.0165	0.9585
52.5414	-11.9343	708.532	48.4741	-269.8688	-44.5662	598.8514	3.4254	76.0075	-0.85028	26.8571	-0.60258	54.2169	-0.0592	0.0182	-0.0073	-0.0462	0.0165	0.9585
52.5546	-12.2754	746.3699	52.6242	-283.545	-47.6683	627.379	0.89607	54.0882	-0.18078	19.0726	-0.1181	38.687	-0.0592	0.0182	-0.0073	-0.0462	0.0165	0.9585
52.5679	-12.9143	779.7807	56.5371	-295.3748	-50.6412	652.1912	-1.0072	36.2619	0.20083	12.7568	0.3248	26.0364	-0.0592	0.0182	-0.0073	-0.0462	0.0165	0.9585
52.5811	-13.7488	807.0367	60.0326	-304.7023	-53.3002	671.9548	-2.2017	22.3032	0.35521	7.8252	0.65471	16.1289	-0.0592	0.0182	-0.0073	-0.0462	0.0165	0.9585
52.5943	-14.6679	826.7574	62.9962	-311.0148	-55.5167	685.6175	-2.6631	11.9394	0.3444	4.1755	0.82228	8.7694	-0.0592	0.0182	-0.0073	-0.0462	0.0165	0.9585
52.6075	-15.5402	838.0289	65.3371	-313.9895	-57.177	692.4863	-2.5604	4.8525	0.23834	1.6876	0.84673	3.7318	-0.0592	0.0182	-0.0073	-0.0462	0.0165	0.9585
52.6207	-16.2411	840.5042	66.9917	-313.5363	-58.1961	692.3079	-2.1659	0.52108	0.10036	0.17422	0.78746	0.6521	-0.0592	0.0182	-0.0073	-0.0462	0.0165	0.9585
52.6339	-16.6589	834.5258	67.9195	-309.8357	-58.5135	685.3644	-1.6709	-1.7215	-0.043068	-0.60061	0.70183	-0.93863	-0.0592	0.0182	-0.0073	-0.0462	0.0165	0.9585
52.6471	-16.6935	821.151	68.1328	-303.3406	-58.1127	672.4736	-1.1933	-2.5151	-0.16695	-0.86356	0.61455	-1.4977	-0.0592	0.0182	-0.0073	-0.0462	0.0165	0.9585
52.6604	-16.2796	802.0091	67.7227	-294.7166	-57.0518	654.8888	-0.79299	-2.4126	-0.26757	-0.8104	0.54518	-1.4253	-0.0592	0.0182	-0.0073	-0.0462	0.0165	0.9585
52.6736	-15.385	779.1002	66.828	-284.7619	-55.4378	634.1427	-0.4893	-1.8328	-0.34127	-0.58979	0.49628	-1.0163	-0.0592	0.0182	-0.0073	-0.0462	0.0165	0.9585
52.6868	-13.9976	754.6095	65.6034	-274.335	-53.401	611.9022	-0.28078	-1.0574	-0.39313	-0.30261	0.4681	-0.46353	-0.0592	0.0182	-0.0073	-0.0462	0.0165	0.9585
52.7	-12.1247	730.7272	64.1809	-264.2868	-51.0542	589.8314	-0.15252	-0.26602	-0.42707	-0.013378	0.45568	0.10778	-0.0592	0.0182	-0.0073	-0.0462	0.0165	0.9585
52.7132	-9.7819	709.455	62.6974	-255.3872	-48.5143	569.4507	-0.091293	0.43543	-0.44424	0.23933	0.45463	0.6296	-0.0592	0.0182	-0.0073	-0.0462	0.0165	0.9585
